<?xml version="1.0" encoding="UTF-8"?>
<!DOCTYPE svg PUBLIC "-//W3C//DTD SVG 1.1//EN" "http://www.w3.org/Graphics/SVG/1.1/DTD/svg11.dtd">
<svg xmlns="http://www.w3.org/2000/svg" version="1.1" width="512px" height="512px" style="shape-rendering:geometricPrecision; text-rendering:geometricPrecision; image-rendering:optimizeQuality; fill-rule:evenodd; clip-rule:evenodd" xmlns:xlink="http://www.w3.org/1999/xlink">
<g><path style="opacity:0.998" fill="#4a407f" d="M 132.5,-0.5 C 143.833,-0.5 155.167,-0.5 166.5,-0.5C 200.998,3.91607 230.664,18.2494 255.5,42.5C 255.833,43.1667 256.167,43.8333 256.5,44.5C 255.501,114.331 255.167,184.331 255.5,254.5C 207.176,211.831 152.51,201.331 91.5,223C 82.5147,227.158 73.848,231.825 65.5,237C 57.4372,242.695 49.7705,248.862 42.5,255.5C 18.2482,230.662 3.9149,200.996 -0.5,166.5C -0.5,155.167 -0.5,143.833 -0.5,132.5C 9.23473,69.8775 43.9014,27.7108 103.5,6C 113.173,3.2353 122.839,1.06863 132.5,-0.5 Z"/></g>
<g><path style="opacity:0.997" fill="#29cbcb" d="M 344.5,-0.5 C 355.833,-0.5 367.167,-0.5 378.5,-0.5C 444.015,10.1776 486.848,47.1776 507,110.5C 508.719,117.931 510.219,125.265 511.5,132.5C 511.5,143.833 511.5,155.167 511.5,166.5C 507.085,200.996 492.752,230.662 468.5,255.5C 428.792,292.493 382.125,305.993 328.5,296C 300.586,289.05 276.252,275.883 255.5,256.5C 255.5,255.833 255.5,255.167 255.5,254.5C 278.883,231.402 293.05,203.402 298,170.5C 303.843,121.864 290.01,79.8644 256.5,44.5C 256.167,43.8333 255.833,43.1667 255.5,42.5C 280.336,18.2494 310.002,3.91607 344.5,-0.5 Z"/></g>
<g><path style="opacity:1" fill="#282866" d="M 256.5,44.5 C 290.01,79.8644 303.843,121.864 298,170.5C 293.05,203.402 278.883,231.402 255.5,254.5C 255.167,184.331 255.501,114.331 256.5,44.5 Z"/></g>
<g><path style="opacity:0.996" fill="#fe8080" d="M 255.5,254.5 C 255.5,255.167 255.5,255.833 255.5,256.5C 227.364,284.292 212.698,318.126 211.5,358C 211.43,400.657 226.097,437.157 255.5,467.5C 255.5,467.833 255.5,468.167 255.5,468.5C 230.664,492.751 200.998,507.084 166.5,511.5C 155.167,511.5 143.833,511.5 132.5,511.5C 69.8775,501.765 27.7108,467.099 6,407.5C 3.2353,397.827 1.06863,388.161 -0.5,378.5C -0.5,367.167 -0.5,355.833 -0.5,344.5C 3.9149,310.004 18.2482,280.338 42.5,255.5C 49.7705,248.862 57.4372,242.695 65.5,237C 73.848,231.825 82.5147,227.158 91.5,223C 152.51,201.331 207.176,211.831 255.5,254.5 Z"/></g>
<g><path style="opacity:0.997" fill="#fedd33" d="M 468.5,255.5 C 492.752,280.338 507.085,310.004 511.5,344.5C 511.5,355.833 511.5,367.167 511.5,378.5C 500.822,444.015 463.822,486.848 400.5,507C 393.053,508.625 385.72,510.125 378.5,511.5C 367.167,511.5 355.833,511.5 344.5,511.5C 310.002,507.084 280.336,492.751 255.5,468.5C 255.5,468.167 255.5,467.833 255.5,467.5C 255.5,397.167 255.5,326.833 255.5,256.5C 276.252,275.883 300.586,289.05 328.5,296C 382.125,305.993 428.792,292.493 468.5,255.5 Z"/></g>
<g><path style="opacity:1" fill="#ffed98" d="M 255.5,256.5 C 255.5,326.833 255.5,397.167 255.5,467.5C 226.097,437.157 211.43,400.657 211.5,358C 212.698,318.126 227.364,284.292 255.5,256.5 Z"/></g>
</svg>
